<svg width="20" height="20" viewBox="0 0 20 20" fill="none" xmlns="http://www.w3.org/2000/svg">
  <path d="M4.58333 6.66667C5.73393 6.66667 6.66667 5.73393 6.66667 4.58333C6.66667 3.43274 5.73393 2.5 4.58333 2.5C3.43274 2.5 2.5 3.43274 2.5 4.58333C2.5 5.73393 3.43274 6.66667 4.58333 6.66667Z" fill="black"/>
  <path d="M2.91667 7.91667H6.25V17.5H2.91667V7.91667Z" fill="black"/>
  <path d="M8.33333 7.91667H11.5278V9.22611H11.5733C12.0189 8.38167 13.1056 7.5 14.7278 7.5C18.1067 7.5 18.75 9.72389 18.75 12.6156V17.5H15.4167V13.1689C15.4167 12.1361 15.3989 10.805 13.9794 10.805C12.5394 10.805 12.3183 11.9289 12.3183 13.0939V17.5H8.985V7.91667H8.33333Z" fill="black"/>
</svg>
